<svg width="32" height="32" viewBox="0 0 23 18" fill="none" xmlns="http://www.w3.org/2000/svg">
  <path fill-rule="evenodd" clip-rule="evenodd" d="M20.1022 0.139692L3.77345 6.51125C1.06299 7.56896 -0.0860776 10.4202 1.32528 12.7015C3.24287 15.8009 6.99614 17.9065 11.3125 17.9065C17.5782 17.9065 22.6577 13.4693 22.6577 7.99636V1.58749C22.6577 0.672865 21.7992 0 20.8428 0C20.5982 0 20.3469 0.044097 20.1019 0.139692H20.1022Z" fill="#000A4A"/>
  <path d="M0 7.99659C0 13.4699 5.0792 17.907 11.3452 17.907C15.6616 17.907 19.4148 15.8015 21.3324 12.702C22.7438 10.4207 21.5951 7.5695 18.8843 6.51179L2.55549 0.140232C1.35488 -0.328184 0 0.439351 0 1.58803V7.9969L0 7.99659Z" fill="#00C6FB"/>
</svg> 